<?xml version="1.0" encoding="UTF-8"?>
<svg width="24" height="24" version="1.1" viewBox="0 0 24 24" xmlns="http://www.w3.org/2000/svg"><path d="m1 2v2h2l3.5996 7.5898-1.3594 2.4492c-0.15 0.28-0.24023 0.61094-0.24023 0.96094 0 0.5304 0.21086 1.039 0.58594 1.4141 0.37507 0.3751 0.88363 0.58594 1.4141 0.58594h12v-2h-11.58c-0.0663 0-0.12889-0.025366-0.17578-0.072266-0.04688-0.0469-0.074219-0.11143-0.074219-0.17773l0.029297-0.11914 0.90039-1.6309h7.4512c0.75 0 1.41-0.4193 1.75-1.0293l3.5801-6.4707c0.07-0.16 0.11914-0.33 0.11914-0.5 0-0.26522-0.10547-0.51949-0.29297-0.70703-0.1875-0.18753-0.44183-0.29297-0.70703-0.29297h-14.789l-0.94141-2h-3.2695zm5.1406 4h12.639l-2.7793 5h-7.5l-2.3594-5zm0.85938 12a2 2 0 0 0-2 2 2 2 0 0 0 2 2 2 2 0 0 0 2-2 2 2 0 0 0-2-2zm10 0a2 2 0 0 0-2 2 2 2 0 0 0 2 2 2 2 0 0 0 2-2 2 2 0 0 0-2-2z"/></svg>
