<?xml version="1.0" encoding="UTF-8"?>
<svg width="24" height="24" version="1.1" viewBox="0 0 24 24" xmlns="http://www.w3.org/2000/svg"><path d="m11 13.5v8h-8v-8h8zm-2 2h-4v4h4v-4zm3-13.5 5.5 9h-11l5.5-9zm0 3.86-1.92 3.14h3.84l-1.92-3.14zm5.5 7.14c2.5 0 4.5 2 4.5 4.5s-2 4.5-4.5 4.5-4.5-2-4.5-4.5 2-4.5 4.5-4.5zm0 2c-0.663 0-1.2989 0.2634-1.7678 0.7322-0.4688 0.4689-0.7322 1.1048-0.7322 1.7678s0.2634 1.2989 0.7322 1.7678c0.4689 0.4688 1.1048 0.7322 1.7678 0.7322s1.2989-0.2634 1.7678-0.7322c0.4688-0.4689 0.7322-1.1048 0.7322-1.7678s-0.2634-1.2989-0.7322-1.7678c-0.4689-0.4688-1.1048-0.7322-1.7678-0.7322z"/></svg>
