<?xml version="1.0" encoding="UTF-8"?>
<svg width="24" height="24" version="1.1" viewBox="0 0 24 24" xmlns="http://www.w3.org/2000/svg"><path d="m21 11.11v-6.11c0-0.53043-0.2107-1.0391-0.5858-1.4142-0.3751-0.37508-0.8838-0.58579-1.4142-0.58579h-4.18c-0.42-1.16-1.52-2-2.82-2s-2.4 0.84-2.82 2h-4.18c-1.1 0-2 0.9-2 2v14c0 0.5304 0.21071 1.0391 0.58579 1.4142 0.37507 0.3751 0.88378 0.5858 1.4142 0.5858h6.11c1.26 1.24 2.98 2 4.89 2 3.87 0 7-3.13 7-7 0-1.91-0.76-3.63-2-4.89zm-9-8.11c0.55 0 1 0.45 1 1s-0.45 1-1 1-1-0.45-1-1 0.45-1 1-1zm-7 16v-14h2v2h10v-2h2v4.68c-0.91-0.43-1.92-0.68-3-0.68h-9v2h4.1c-0.6 0.57-1.06 1.25-1.42 2h-2.68v2h2.08c-0.05 0.33-0.08 0.66-0.08 1 0 1.08 0.25 2.09 0.68 3h-4.68zm11 2c-2.76 0-5-2.24-5-5s2.24-5 5-5 5 2.24 5 5-2.24 5-5 5zm0.5-4.75 2.86 1.69-0.75 1.22-3.61-2.16v-5h1.5v4.25z"/></svg>
