<svg width="16" height="16" viewBox="0 0 16 16" xmlns="http://www.w3.org/2000/svg">
<path d="M12.0867 8L12.9267 7.16C13.22 6.86667 13.5933 6.70667 14 6.66667V6L10 2H3.33333C2.59333 2 2 2.59333 2 3.33333V12.6667C2 13.0203 2.14048 13.3594 2.39052 13.6095C2.64057 13.8595 2.97971 14 3.33333 14H7.33333V12.7533L7.42 12.6667H3.33333V3.33333H8V8H12.0867ZM9.33333 3L13 6.66667H9.33333V3ZM12.7533 9.22L14.1133 10.58L10.0267 14.6667H8.66667V13.3067L12.7533 9.22ZM15.2333 9.46L14.58 10.1133L13.22 8.75333L13.8733 8.1C14 7.96667 14.22 7.96667 14.3533 8.1L15.2333 8.98C15.3667 9.11333 15.3667 9.33333 15.2333 9.46Z"/>
</svg>
