<?xml version="1.0" encoding="UTF-8"?>
<svg width="24" height="24" version="1.1" viewBox="0 0 24 24" xmlns="http://www.w3.org/2000/svg"><path d="m5 3c-1.11 0-2 0.89-2 2v14c0 0.5304 0.21071 1.0391 0.58579 1.4142 0.37507 0.3751 0.88378 0.5858 1.4142 0.5858h14c0.5304 0 1.0391-0.2107 1.4142-0.5858s0.5858-0.8838 0.5858-1.4142v-7h-2v7h-14v-14h7v-2h-7zm12.78 1c-0.18 0.00152-0.3522 0.07329-0.48 0.2l-1.22 1.21 2.5 2.5 1.22-1.21c0.26-0.26 0.26-0.7 0-0.95l-1.55-1.55c-0.13-0.13-0.3-0.2-0.47-0.2zm-2.41 2.12-7.37 7.38v2.5h2.5l7.37-7.38-2.5-2.5z"/></svg>
