<?xml version="1.0" encoding="UTF-8"?>
<svg width="24" height="24" version="1.1" viewBox="0 0 24 24" xmlns="http://www.w3.org/2000/svg"><path d="m9.5 3c1.7239 0 3.3772 0.68482 4.5962 1.9038 1.219 1.219 1.9038 2.8723 1.9038 4.5962 0 1.61-0.59 3.09-1.56 4.23l0.27 0.27h0.79l5 5-1.5 1.5-5-5v-0.79l-0.27-0.27c-1.1795 1.0068-2.6793 1.5599-4.23 1.56-1.7239 0-3.3772-0.6848-4.5962-1.9038-1.219-1.219-1.9038-2.8723-1.9038-4.5962 0-1.7239 0.68482-3.3772 1.9038-4.5962 1.219-1.219 2.8723-1.9038 4.5962-1.9038zm0 2c-2.5 0-4.5 2-4.5 4.5s2 4.5 4.5 4.5 4.5-2 4.5-4.5-2-4.5-4.5-4.5z"/></svg>
